<svg xmlns="http://www.w3.org/2000/svg" xmlns:xlink="http://www.w3.org/1999/xlink" width="952.133" height="156.943" viewBox="0 0 952.133 156.943"><defs><style>.a{fill:url(#a);}</style><linearGradient id="a" x1="0.5" y1="0.022" x2="0.5" y2="1.043" gradientUnits="objectBoundingBox"><stop offset="0" stop-color="#724444"/><stop offset="0.994" stop-color="#523235"/></linearGradient></defs><path class="a" d="M364.625,531.915c-18.157,0-11.348,1.538-25.723,0s-25.722-13.066-33.288-13.836-35.558-3.075-42.368-.768-12.862,2.306-39.341-3.844-39.341,2.307-43.124,0-48.42-3.842-54.473-3.842-52.959-2.306-58.255,3.844-21.94,2.306-31.775.768-34.8,0-39.342,0-37.071,9.993-52.2,6.917-92.3,5.382-97.6,6.15-63.552,4.612-81.709,4.612c-12.028,0-28.7,2.36-38.585,3.954V666.145H678.977V580.938C628.251,580.856,381.7,531.915,364.625,531.915Z" transform="translate(273.156 -509.201)"/></svg>