<svg xmlns="http://www.w3.org/2000/svg" width="952.133" height="208.534" viewBox="0 0 952.133 208.534"><defs><style>.a{fill:#936155;}</style></defs><path class="a" d="M472.436,525.9c-6.809-10.16-45.394-22.576-60.147-22.576H378.244c-15.888,0-47.664,22.576-53.338,23.705s-223.564,2.258-237.182-3.387S59.353,506.707,46.87,504.449s-52.2-6.773-65.821-13.546-21.562,0-47.663-2.258-26.1-1.129-38.585-4.515-23.832-12.418-24.966-15.8-48.8-3.387-54.473-4.515c-4.893-.974-70.527-5.3-88.518-6.477V665.869H678.977V544.523C633.393,542.4,478.242,534.559,472.436,525.9Z" transform="translate(273.156 -457.335)"/></svg>