<svg xmlns="http://www.w3.org/2000/svg" width="208.988" height="19.194" viewBox="0 0 208.988 19.194"><defs><style>.a{fill:#ffbd87;}</style></defs><path class="a" d="M386.683,416.04a48.232,48.232,0,0,0-6.027-.786c-1.988-1.262-3.915-2.99-4.981-3.706a9.076,9.076,0,0,0-4.476-1.428,11.691,11.691,0,0,0-4.974-1.1c-3.811-.091-7.6-.265-11.433-.4a39.658,39.658,0,0,0-11.076,1.418h-5.663a22.754,22.754,0,0,0-3.688-.7c-3.665-.3-7.264-1.228-10.971-.94-1.212.094-2.337.245-3.425.395-2.093-.556-4.179-1.193-6.375-1.695-7.067-1.616-14.407-1.769-21.618-2.28-6.082-.431-12.383.79-18.619,1.59-4.323-.258-8.934.667-13.136.672a5.254,5.254,0,0,0-4.083,1.735,28.476,28.476,0,0,1-9.043,1.287,24.77,24.77,0,0,0-14.559-1c-2.832.573-6-.187-8.87.335-1.176-.008-2.352-.023-3.537-.011a30.151,30.151,0,0,0-6.335.655,13.386,13.386,0,0,1-1.4-.723,5.244,5.244,0,0,0-7.18,1.478c-.075,0-.147,0-.223.009-3.182.281-6.176-2.6-9.479-2.905-2.157-.2-3.977.6-6.027,1.155q-1.257.479-2.49,1.016c-.2.117-.38.219-.536.306-4.981-1.737-10.509,4.893-5.909,9.31a8.035,8.035,0,0,0,5.722,2.629c2.513,0,4.071-1.527,6.23-2.376,4.183-1.645,7.939,2.556,12.489,2.153a5.849,5.849,0,0,0,3.092-1.168,4.689,4.689,0,0,0,.612.1,5.464,5.464,0,0,0,1.593-.1,15.444,15.444,0,0,0,5.672,1.352c3.434.084,6.188-1.243,9.458-1.666,3.433-.442,6.707.16,10.132-.667a11.045,11.045,0,0,1,7.431.623,5.588,5.588,0,0,0,7.724-2.335q1.025.084,2.049.174a5.189,5.189,0,0,0,4.439,2.178,5.314,5.314,0,0,0,3.766-1.4l1.257.119a55.627,55.627,0,0,0,14.209-.831c2.328.632,4.629,1.556,6.874,2.191,4.828,1.369,11.938.77,15.569-3.073,3.005.208,6.184,1.421,9.019,2.039,3.415.744,6.767,1.583,10.28,1.035,4.311-.672,7.345-1.045,11.661-.377,3.209.5,5.96.511,9.079,1.6,2.874,1,7.356-.995,10.2-1.506a33.97,33.97,0,0,1,11.736,0,13.186,13.186,0,0,0,3.906-.015c2.308-.252,3.557,1.18,5.332,2.457,3.205,2.307,6.326.513,7.6-2.289a40.181,40.181,0,0,0,8.365-1.239,1.393,1.393,0,0,0,1-.992c.1-.063.2-.109.306-.18C388.334,417.514,387.589,416.226,386.683,416.04Z" transform="translate(-178.83 -404.74)"/></svg>