<svg xmlns="http://www.w3.org/2000/svg" width="13.91" height="11.584" viewBox="0 0 13.91 11.584"><defs><style>.a{fill:#115b6d;}</style></defs><path class="a" d="M13.5,5.648a1.5,1.5,0,0,0-.978-.348l-7.889.587A1.41,1.41,0,0,0,3.477,7.213v6.433a4.024,4.024,0,0,0-1.152-.239C1.043,13.407,0,14.167,0,15.145s1.043,1.739,2.326,1.739,2.326-.761,2.326-1.739V10.234l8.107-.63v3.477a2.61,2.61,0,0,0-1.152-.239c-1.282,0-2.326.761-2.326,1.739s1.043,1.739,2.326,1.739,2.3-.761,2.3-1.739V6.626A1.681,1.681,0,0,0,13.5,5.648ZM2.326,15.732c-.7,0-1.152-.348-1.152-.587s.456-.565,1.152-.565,1.152.348,1.152.587S3.021,15.732,2.326,15.732Zm9.259-.565c-.7,0-1.152-.348-1.152-.587s.456-.587,1.152-.587,1.152.348,1.152.587S12.28,15.167,11.584,15.167ZM4.629,7.213A.116.116,0,0,1,4.738,7.1l7.889-.587h0c.065,0,.065,0,.065.065,0,0,.065.065.065.109v1.8l-8.107.63V7.213Z" transform="translate(0 -5.3)"/></svg>