<svg width="25" height="25" viewBox="0 0 25 25" fill="none" xmlns="http://www.w3.org/2000/svg">
<mask id="mask0_29_7" style="mask-type:alpha" maskUnits="userSpaceOnUse" x="0" y="0" width="25" height="25">
<rect x="0.0550919" y="0.553719" width="24" height="24" fill="#D9D9D9"/>
</mask>
<g mask="url(#mask0_29_7)">
<path d="M19.6551 21.5537L13.3551 15.2537C12.8551 15.6537 12.2801 15.9704 11.6301 16.2037C10.9801 16.4371 10.2884 16.5537 9.55509 16.5537C7.73843 16.5537 6.20093 15.9246 4.94259 14.6662C3.68426 13.4079 3.05509 11.8704 3.05509 10.0537C3.05509 8.23705 3.68426 6.69955 4.94259 5.44122C6.20093 4.18289 7.73843 3.55372 9.55509 3.55372C11.3718 3.55372 12.9093 4.18289 14.1676 5.44122C15.4259 6.69955 16.0551 8.23705 16.0551 10.0537C16.0551 10.7871 15.9384 11.4787 15.7051 12.1287C15.4718 12.7787 15.1551 13.3537 14.7551 13.8537L21.0551 20.1537L19.6551 21.5537ZM9.55509 14.5537C10.8051 14.5537 11.8676 14.1162 12.7426 13.2412C13.6176 12.3662 14.0551 11.3037 14.0551 10.0537C14.0551 8.80372 13.6176 7.74122 12.7426 6.86622C11.8676 5.99122 10.8051 5.55372 9.55509 5.55372C8.30509 5.55372 7.24259 5.99122 6.36759 6.86622C5.49259 7.74122 5.05509 8.80372 5.05509 10.0537C5.05509 11.3037 5.49259 12.3662 6.36759 13.2412C7.24259 14.1162 8.30509 14.5537 9.55509 14.5537Z" fill="white"/>
</g>
</svg>
