<svg width="25" height="25" viewBox="0 0 25 25" fill="none" xmlns="http://www.w3.org/2000/svg">
<mask id="mask0_7_25" style="mask-type:alpha" maskUnits="userSpaceOnUse" x="0" y="0" width="25" height="25">
<rect x="0.523483" y="0.26453" width="24" height="24" fill="#D9D9D9"/>
</mask>
<g mask="url(#mask0_7_25)">
<path d="M11.1235 16.4645L18.1735 9.41453L16.7735 8.01453L11.1235 13.6645L8.27348 10.8145L6.87348 12.2145L11.1235 16.4645ZM5.52348 21.2645C4.97348 21.2645 4.50265 21.0687 4.11098 20.677C3.71932 20.2854 3.52348 19.8145 3.52348 19.2645V5.26453C3.52348 4.71453 3.71932 4.2437 4.11098 3.85203C4.50265 3.46036 4.97348 3.26453 5.52348 3.26453H19.5235C20.0735 3.26453 20.5443 3.46036 20.936 3.85203C21.3277 4.2437 21.5235 4.71453 21.5235 5.26453V19.2645C21.5235 19.8145 21.3277 20.2854 20.936 20.677C20.5443 21.0687 20.0735 21.2645 19.5235 21.2645H5.52348Z" fill="white"/>
</g>
</svg>
