<svg xmlns="http://www.w3.org/2000/svg" width="24" height="24" viewBox="0 0 24 24">
    <g fill="none" fill-rule="evenodd" transform="translate(2 3)">
        <circle cx="10" cy="10" r="9" stroke="#A5A5A5" stroke-linecap="round" stroke-linejoin="round"/>
        <path fill="#A5A5A5" d="M9.417 5c.23 0 .416.168.416.375v4.875h3.712c.251 0 .455.168.455.375s-.204.375-.455.375H9.417c-.23 0-.417-.168-.417-.375v-5.25C9 5.168 9.187 5 9.417 5z"/>
        <path stroke="#A5A5A5" stroke-linecap="round" stroke-linejoin="round" d="M16 .546c.973-.787 2.375-.716 3.264.166.889.88.984 2.293.222 3.288M4 .546C3.027-.241 1.625-.17.736.712-.153 1.592-.248 3.005.514 4"/>
    </g>
</svg>
